<?xml version="1.0" encoding="utf-8"?><svg viewBox="411.807 -26.659 576.406 551.44" width="576.406" height="551.44" xmlns="http://www.w3.org/2000/svg"><path d="M925.6 249.1A225.6 194.9 0 01700 444a225.6 194.9 0 01-225.6-194.9A225.6 194.9 0 01700 54.2a225.6 194.9 0 01225.6 194.9z" class="est1" fill="none" stroke="#ccc" stroke-width="5" stroke-miterlimit="10"/><path d="M897.164 139.455A225.597 187.298-29.072 01791 412.775a225.597 187.298-29.072 01-288.183-54.082A225.597 187.298-29.072 01608.98 85.374a225.597 187.298-29.072 01288.183 54.081z" class="est1" fill="none" stroke="#ccc" stroke-width="4.99995" stroke-miterlimit="10"/><path d="M829.812 64.542a225.605 158.504-54.873 01-.173 275.719 225.605 158.504-54.873 01-259.448 93.317 225.605 158.504-54.873 01.173-275.72 225.605 158.504-54.873 01259.448-93.316z" class="est1" fill="none" stroke="#ccc" stroke-width="5.0001" stroke-miterlimit="10"/><path d="M783.86 39.658a225.601 121.7-68.186 0129.153 254.67 225.601 121.7-68.186 01-196.82 164.224 225.601 121.7-68.186 01-29.153-254.67A225.601 121.7-68.186 01783.86 39.657z" class="est1" fill="none" stroke="#ccc" stroke-width="5.00005" stroke-miterlimit="10"/><path d="M736.525 26.5a60.899 225.595 9.312 0123.594 232.476 60.899 225.595 9.312 01-96.598 212.768 60.899 225.595 9.312 01-23.594-232.476A60.899 225.595 9.312 01736.525 26.5z" class="est1" fill="none" stroke="#ccc" stroke-width="4.9999" stroke-miterlimit="10"/><path d="M925.6 249.1A225.6 194.9 0 01700 444a225.6 194.9 0 01-225.6-194.9A225.6 194.9 0 01700 54.2a225.6 194.9 0 01225.6 194.9z" class="est1" fill="none" stroke="#ccc" stroke-width="5" stroke-miterlimit="10"/><path d="M502.855 139.456a187.298 225.597-60.928 01288.184-54.08 187.298 225.597-60.928 01106.165 273.318 187.298 225.597-60.928 01-288.183 54.082 187.298 225.597-60.928 01-106.166-273.32z" class="est1" fill="none" stroke="#ccc" stroke-width="4.99995" stroke-miterlimit="10"/><path d="M570.224 64.544A158.504 225.605-35.127 01829.67 157.86a158.504 225.605-35.127 01.173 275.72 158.504 225.605-35.127 01-259.447-93.318 158.504 225.605-35.127 01-.173-275.72z" class="est1" fill="none" stroke="#ccc" stroke-width="5.0001" stroke-miterlimit="10"/><path d="M616.153 39.638a121.7 225.601-21.814 01196.82 164.223 121.7 225.601-21.814 01-29.154 254.67 121.7 225.601-21.814 01-196.82-164.223 121.7 225.601-21.814 0129.154-254.67z" class="est1" fill="none" stroke="#ccc" stroke-width="5.00005" stroke-miterlimit="10"/><path d="M663.478 26.481a60.899 225.595-9.312 0196.598 212.769 60.899 225.595-9.312 01-23.594 232.476 60.899 225.595-9.312 01-96.598-212.769 60.899 225.595-9.312 0123.594-232.476z" class="est1" fill="none" stroke="#ccc" stroke-width="4.9999" stroke-miterlimit="10"/><path d="M700 26.3v445.6" class="est1" fill="none" stroke="#ccc" stroke-width="5" stroke-miterlimit="10"/></svg>